<svg xmlns="http://www.w3.org/2000/svg" viewBox="0 0 300 300" width="300" height="300"><defs><radialGradient id="1212678140256864661" cx="131.5860050871998" cy="46.08169505599113" r="182.63985426367384" gradientTransform="matrix(0.00351014,0,0,0.003676471,0.143915757,0.225490196)"><stop stop-color="#1cc8ea" /><stop offset="1" stop-color="#304dcf" /></radialGradient></defs><g transform="matrix(1,0,0,1,83,76)">
<g transform="matrix(1,0,0,1,-83,-76)">
	<g transform="matrix(1,0,0,1,49.777777778,75.555555556)">
		<path d="M-41,-61.33333333 C-41,-61.33333333 -40.99995,2.66666667 -40.99995,2.66666667 C-40.99995,2.66666667 22.11111111,2.66666667 22.11111111,2.66666667 C22.11111111,2.66666667 42.55555556,-4.44444444 42.55555556,-4.44444444 C42.55555556,-4.44444444 26.11111111,8 26.11111111,8 C26.11111111,8 -41,144.44444444 -41,144.44444444 C-41,144.44444444 -41,210.66666667 -41,210.66666667 C-41,210.66666667 211,210.66666667 211,210.66666667 C211,210.66666667 243.88888889,174.22222222 243.88888889,174.22222222 C243.88888889,174.22222222 243.88888889,-26.22222222 243.88888889,-26.22222222 C243.88888889,-26.22222222 212.77777778,-61.33333333 212.77777778,-61.33333333 C212.77777778,-61.33333333 -41,-61.33333333 -41,-61.33333333 ZM85.22222222,37.77777778 C85.22222222,37.77777778 85.22227222000001,144 85.22227222000001,144 C85.22227222000001,144 40.77777778,144 40.77777778,144 C40.77777778,144 17.66666667,151.11111111 17.66666667,151.11111111 C17.66666667,151.11111111 37.22222222,134.22222222 37.22222222,134.22222222 C37.22222222,134.22222222 85.22222222,37.77777778 85.22222222,37.77777778 ZM153.66661667,-1.33338333 C153.66661667,-1.33338333 174.22015722,-1.33338333 174.22015722,-1.33338333 C174.22015722,-1.33338333 187.94282976,-6.66369985 187.94282976,-6.66369985 C187.94282976,-6.66369985 177.99142774,3.76157845 177.99142774,3.76157845 C177.99142774,3.76157845 177.99142774,147.58303139 177.99142774,147.58303139 C177.99142774,147.58303139 183.91488132,157.06055712 183.91488132,157.06055712 C183.91488132,157.06055712 172.06797416,151.11111111 172.06797416,151.11111111 C172.06797416,151.11111111 153.66671667,151.11111111 153.66671667,151.11111111 C153.66671667,151.11111111 153.66661667,-1.33338333 153.66661667,-1.33338333 Z" fill="url('#1212678140256864661')"/>
	</g>
</g></g></svg>