 <svg  version="1.0" xmlns="http://www.w3.org/2000/svg"  width="300.000000pt" height="300.000000pt" viewBox="0 0 300.000000 300.000000"  preserveAspectRatio="xMidYMid meet">  <g transform="translate(0.000000,300.000000) scale(0.100000,-0.100000)" fill="#4d4bce" stroke="none"> <path d="M150 2535 l0 -316 363 3 362 3 90 32 c79 28 86 29 60 10 -16 -12 -57 -42 -90 -67 l-60 -45 -362 -670 -362 -670 0 -337 -1 -338 1173 0 1174 0 181 176 182 176 0 1013 0 1014 -161 165 -161 166 -1194 0 -1194 0 0 -315z m2090 -180 c0 -2 -18 -55 -40 -116 l-40 -112 0 -637 0 -636 30 -82 c17 -46 30 -87 30 -93 0 -6 -34 8 -76 30 -72 39 -79 41 -165 41 l-89 0 0 760 0 760 83 1 c77 0 87 3 167 44 83 43 100 50 100 40z m-1070 -1345 l0 -190 -78 0 c-74 0 -119 -11 -267 -65 -11 -4 14 16 57 44 42 28 87 64 101 81 14 16 60 95 102 175 42 80 78 145 81 145 2 0 4 -85 4 -190z"/> </g> </svg> 