<?xml version="1.0" standalone="no"?>
<!DOCTYPE svg PUBLIC "-//W3C//DTD SVG 20010904//EN"
 "http://www.w3.org/TR/2001/REC-SVG-20010904/DTD/svg10.dtd">
<svg version="1.0" xmlns="http://www.w3.org/2000/svg"
 width="300.000000pt" height="300.000000pt" viewBox="0 0 300.000000 300.000000"
 preserveAspectRatio="xMidYMid meet">
<metadata>
Created by potrace 1.10, written by Peter Selinger 2001-2011
</metadata>
<g transform="translate(0.000000,300.000000) scale(0.100000,-0.100000)"
fill="#4251c2" stroke="none">
<path d="M230 2368 l0 -273 307 5 c287 5 312 7 367 27 33 13 61 21 63 20 2 -2
-21 -20 -50 -40 -30 -21 -63 -47 -74 -60 -11 -12 -165 -290 -342 -618 l-321
-596 0 -232 0 -231 1153 0 1152 0 153 153 152 152 0 828 0 829 -147 154 -148
154 -1132 0 -1133 0 0 -272z m2001 -243 l-41 -45 0 -583 c0 -472 3 -586 13
-602 8 -11 22 -33 32 -49 l19 -28 -62 31 c-54 27 -72 31 -142 31 l-80 0 0 630
0 630 108 0 c82 0 116 5 147 19 22 10 42 17 44 15 2 -2 -15 -24 -38 -49z
m-861 -762 l0 -428 -213 -1 c-204 0 -215 -1 -286 -27 -41 -15 -77 -27 -80 -27
-3 0 14 13 39 29 92 59 104 76 321 484 117 218 214 397 216 397 1 0 3 -192 3
-427z"/>
</g>
</svg>
